<?xml version="1.0" encoding="UTF-8" standalone="no"?>
<!-- Created with Inkscape (http://www.inkscape.org/) -->

<svg
   width="256"
   height="256"
   viewBox="0 0 67.733331 67.733334"
   version="1.1"
   id="svg1"
   xml:space="preserve"
   inkscape:version="1.4 (e7c3feb100, 2024-10-09)"
   sodipodi:docname="qpasa.svg"
   xmlns:inkscape="http://www.inkscape.org/namespaces/inkscape"
   xmlns:sodipodi="http://sodipodi.sourceforge.net/DTD/sodipodi-0.dtd"
   xmlns="http://www.w3.org/2000/svg"
   xmlns:svg="http://www.w3.org/2000/svg"><sodipodi:namedview
     id="namedview1"
     pagecolor="#ffffff"
     bordercolor="#000000"
     borderopacity="0.25"
     inkscape:showpageshadow="2"
     inkscape:pageopacity="0.0"
     inkscape:pagecheckerboard="0"
     inkscape:deskcolor="#d1d1d1"
     inkscape:document-units="mm"
     inkscape:zoom="2.2223866"
     inkscape:cx="25.423119"
     inkscape:cy="138.36476"
     inkscape:window-width="1920"
     inkscape:window-height="1200"
     inkscape:window-x="3360"
     inkscape:window-y="0"
     inkscape:window-maximized="1"
     inkscape:current-layer="layer1" /><defs
     id="defs1" /><g
     inkscape:label="Layer 1"
     inkscape:groupmode="layer"
     id="layer1"
     transform="translate(-0.30218169,-0.01861532)"><rect
       style="fill:#3c6981;fill-opacity:1;stroke:none;stroke-width:0.700001;stroke-miterlimit:3.6"
       id="rect1"
       width="67.805893"
       height="67.836365"
       x="0.30218169"
       y="0.01861532"
       ry="16.163254"
       rx="15.489802" /><path
       d="m 43.028481,36.589741 c 0.968159,-0.906436 1.760294,-1.786823 1.760294,-1.956421 0,-0.267298 -2.703826,-3.230467 -3.297919,-3.614242 -0.337884,-0.218269 -0.661626,-0.169162 -1.003279,0.152202 -0.483388,0.454677 -0.387307,0.7712 0.513033,1.689933 l 0.828457,0.845385 H 28.660896 c -2.205994,0 -2.780678,0.05614 -3.036401,0.296691 -0.406421,0.382276 -0.401994,0.91651 0.01088,1.304808 0.274339,0.258038 0.737417,0.297732 2.910824,0.249484 1.42152,-0.03154 13.031622,-0.01037 13.03143,0.04718 -1.91e-4,0.0575 -0.316487,0.392777 -0.702879,0.745042 -0.386393,0.352253 -0.702528,0.765794 -0.702528,0.918972 0,0.333807 0.577001,0.969031 0.880208,0.969031 0.118701,0 1.007949,-0.741632 1.976114,-1.648072 z"
       style="fill:#000000;stroke-width:0.999999"
       id="path1-2"
       sodipodi:nodetypes="csssscsscssssscc" /><path
       d="M 43.477601,59.03441 C 42.705462,58.694546 42.051999,58.246109 41.751626,57.849969 L 41.268243,57.21247 v -8.968039 -8.968037 l 0.592271,-0.06337 c 1.119203,-0.119802 1.113862,-0.162588 1.113862,8.931112 0,9.340396 -0.07116,8.889645 1.492757,9.451443 2.591374,0.930875 6.46538,-0.394575 8.048718,-2.753774 0.425357,-0.633781 0.555015,-0.69667 1.660484,-0.805354 1.979286,-0.194584 3.400455,-0.805637 4.685959,-2.014793 1.158448,-1.089638 1.775647,-2.344215 1.775647,-3.609316 0,-0.410171 0.241644,-0.691307 1.15415,-1.342753 1.618489,-1.155454 2.543669,-2.848915 2.53635,-4.64256 -0.0038,-0.922888 -0.12337,-1.477353 -0.444541,-2.060742 l -0.439386,-0.798137 0.885251,-1.216243 c 1.725222,-2.370277 1.916752,-5.382109 0.484324,-7.616142 l -0.391786,-0.61103 -0.738031,0.474409 c -1.062246,0.682815 -2.969094,1.186343 -5.05299,1.33431 -1.582902,0.112397 -1.86219,0.08574 -2.210866,-0.211068 -0.480153,-0.408724 -0.511837,-0.903375 -0.08367,-1.306111 0.232265,-0.218469 0.7239,-0.296692 1.864698,-0.296692 2.848077,0 4.802563,-0.770749 5.72982,-2.259536 0.467009,-0.749828 0.65816,-2.986079 0.347494,-4.065287 -0.390603,-1.356875 -1.452643,-2.779506 -2.626558,-3.518339 -1.032263,-0.649683 -1.103544,-0.746572 -1.335163,-1.814612 -0.134578,-0.620556 -0.429316,-1.468693 -0.654973,-1.884744 -0.562091,-1.03635 -2.240333,-2.725439 -3.40849,-3.430524 -1.16951,-0.705901 -3.057186,-1.340627 -3.986995,-1.340627 -1.339621,0 -2.635105,1.020995 -3.256494,2.566489 -0.323895,0.805593 -0.453535,0.934023 -0.994681,0.985387 -0.500295,0.04745 -0.666896,-0.03312 -0.850072,-0.411258 -0.192893,-0.398211 -0.1355,-0.655883 0.374295,-1.680596 0.331168,-0.665653 0.935204,-1.523574 1.342302,-1.906494 l 0.740173,-0.696216 -0.764648,-0.32066 c -0.553428,-0.232077 -1.328401,-0.32198 -2.805409,-0.325455 -1.851859,-0.0043 -2.085904,0.03504 -2.528499,0.425762 l -0.487733,0.430573 -0.144896,8.533782 c -0.09341,5.501769 -0.220028,8.61894 -0.356372,8.773466 -0.326229,0.369732 -1.12503,0.286765 -1.369098,-0.142196 -0.14931,-0.262425 -0.19861,-3.053049 -0.157601,-8.920839 0.05373,-7.682043 0.09462,-8.599032 0.407912,-9.1376696 1.278326,-2.1978256 5.737202,-2.5811308 9.180441,-0.7892022 0.610277,0.3176064 1.787039,0.7388738 2.615017,0.9361488 0.827984,0.197284 2.182862,0.669286 3.010833,1.048895 2.760745,1.265752 5.453103,4.301583 5.918228,6.673236 0.09142,0.466088 0.326492,0.783544 0.793435,1.07145 0.931185,0.574152 2.013255,1.872507 2.65713,3.188222 0.717356,1.465903 0.885121,3.999918 0.374237,5.652905 -0.326375,1.056017 -0.324552,1.112697 0.05118,1.59068 1.96449,2.499298 2.14006,5.865101 0.466878,8.95041 -0.694442,1.28053 -0.773712,1.548557 -0.586328,1.982414 0.348715,0.807398 0.280089,3.393384 -0.119782,4.513406 -0.424608,1.189301 -1.866896,3.090557 -2.692474,3.549273 -0.44765,0.248723 -0.620544,0.507878 -0.697129,1.044953 -0.253881,1.780428 -1.831838,3.924439 -3.721861,5.057004 -1.017014,0.609431 -3.152115,1.3467 -3.899984,1.3467 -0.300541,0 -0.925319,0.42191 -1.762655,1.190306 -2.848865,2.614316 -6.469585,3.392659 -9.525298,2.047647 z m 5.282984,-4.728497 c -2.071793,-1.235857 -3.296973,-3.827543 -2.77567,-5.87152 0.285448,-1.119194 0.776168,-1.480977 1.555657,-1.146911 0.462049,0.198021 0.488487,0.276545 0.340315,1.010628 -0.43889,2.174432 0.302671,3.713942 2.369671,4.919509 0.638981,0.372675 0.745554,1.132432 0.200722,1.430914 -0.524628,0.287423 -0.691026,0.253705 -1.690695,-0.34262 z m 5.51588,-6.155881 c -1.461001,-2.446333 -0.145043,-5.404686 2.765845,-6.217785 1.271628,-0.355204 1.632107,-0.368016 1.949708,-0.06929 0.314336,0.295678 0.308675,0.996527 -0.01001,1.242274 -0.138,0.106402 -0.651915,0.294334 -1.142027,0.417628 -2.027744,0.510119 -2.780411,2.109973 -1.888405,4.013996 0.313991,0.670241 0.311894,0.729223 -0.03902,1.093913 -0.5375,0.558656 -1.117047,0.388365 -1.636092,-0.480744 z m -6.404232,-5.685533 c -0.533599,-0.238175 -0.682685,-0.418659 -0.682685,-0.826492 0,-0.837416 0.414238,-1.025803 1.617682,-0.73569 0.933956,0.225147 1.092611,0.214066 1.757794,-0.122816 0.57656,-0.291996 0.910523,-0.705599 1.579333,-1.95595 0.957853,-1.790738 1.616844,-2.526108 2.758469,-3.078203 1.498828,-0.724846 4.295134,-0.622889 4.617941,0.168368 0.06744,0.165371 -0.01868,0.503557 -0.191397,0.751525 -0.282998,0.406262 -0.410278,0.438844 -1.287,0.329453 -1.921912,-0.239813 -3.102064,0.453464 -4.158489,2.442905 -0.985277,1.85545 -1.589376,2.557428 -2.556224,2.970417 -1.020601,0.435938 -2.549296,0.460931 -3.455424,0.05645 z m 2.374322,-11.212136 c -0.107431,-1.310178 -0.301691,-1.605021 -2.230335,-3.385112 -2.139624,-1.974833 -2.432584,-2.502096 -2.43229,-4.37762 1.92e-4,-1.226633 0.900992,-3.180951 1.69046,-3.667511 0.480306,-0.29602 0.55323,-0.296705 1.019131,-0.0096 0.608166,0.374814 0.629232,0.663663 0.09502,1.302472 -1.067491,1.276498 -1.27351,2.806522 -0.546642,4.059865 0.248392,0.42831 1.083899,1.270895 1.856684,1.872406 1.62697,1.2664 2.308299,2.341062 2.308299,3.640908 0,1.026588 -0.283984,1.356318 -1.10298,1.280672 -0.531846,-0.0491 -0.609569,-0.133845 -0.657346,-0.716518 z m 4.771159,-6.433708 c -3.163643,-1.344209 -4.370636,-4.912932 -2.470819,-7.305437 0.993428,-1.251058 2.128584,-1.489007 2.392106,-0.501431 0.09502,0.356097 -0.03909,0.629362 -0.590366,1.203357 -1.32059,1.37492 -1.190164,2.981262 0.350526,4.317072 1.049701,0.910111 1.953744,1.126362 3.265104,0.781011 0.840994,-0.22148 0.947625,-0.211847 1.196311,0.108058 1.087263,1.398604 -1.826727,2.381479 -4.142862,1.39737 z"
       style="fill:#ffffff;stroke-width:0.999999"
       id="path1-6"
       sodipodi:nodetypes="csccccssssssssscsscssssssssssssscssscscscssscsssssssssssssssssccssssssssssscsssscssssscssssccssssssscscssssscssss" /><path
       d="m 36.935855,11.220367 c 0.576067,0.581164 0.998699,1.223081 1.116286,1.695464 l 0.189192,0.760207 -3.619185,8.36923 -3.619179,8.369233 -0.572647,-0.143362 c -1.082167,-0.27085 -1.094496,-0.229097 2.575403,-8.715601 3.769446,-8.716722 3.65327,-8.271738 2.435407,-9.330724 -2.017979,-1.754713 -6.131297,-1.842286 -8.545916,-0.181954 -0.648664,0.446032 -0.793812,0.460391 -1.85879,0.183861 -1.906793,-0.495124 -3.466117,-0.41077 -5.141514,0.278136 -1.509792,0.620812 -2.586204,1.580598 -3.09676,2.761228 -0.165524,0.382784 -0.502186,0.562531 -1.607965,0.858492 -1.961303,0.524943 -3.499301,1.789013 -4.216393,3.465394 -0.368938,0.862559 -0.482245,1.420882 -0.421023,2.075129 l 0.08377,0.895073 -1.3085328,0.832364 c -2.5501428,1.62216 -3.9425255,4.367406 -3.5209701,6.942013 l 0.1146757,0.704277 0.8731757,-0.190391 c 1.2567617,-0.274041 3.2213105,-0.092 5.2059195,0.482395 1.50748,0.4363 1.754704,0.55667 1.957,0.952868 0.278569,0.545599 0.108216,1.018051 -0.449819,1.247508 -0.302703,0.124475 -0.788398,0.02937 -1.842145,-0.360658 -2.6307681,-0.973757 -4.747173,-0.92271 -6.2044956,0.149639 -0.7339853,0.54009 -1.8130233,2.561668 -1.9615899,3.675034 -0.1867916,1.399819 0.2200916,3.090571 1.0062677,4.18143 0.6913109,0.959233 0.7180565,1.074029 0.5009734,2.149945 -0.1261233,0.625126 -0.1961475,1.517404 -0.1556152,1.982829 0.1009726,1.159334 0.969497,3.309426 1.7639781,4.366825 0.7953944,1.058617 2.2828862,2.296361 3.141753,2.614261 1.2374035,0.458016 2.8460715,-0.05188 4.0437585,-1.28173 0.624289,-0.641067 0.795876,-0.716593 1.316451,-0.579509 0.481274,0.126766 0.60266,0.258908 0.619247,0.674437 0.01753,0.437561 -0.139534,0.658419 -1.023965,1.4404 -0.57453,0.507986 -1.478706,1.102103 -2.009273,1.320267 l -0.964674,0.396672 0.576901,0.560674 c 0.417539,0.405796 1.097099,0.754668 2.460017,1.262894 1.708822,0.637152 1.940877,0.680471 2.50738,0.46716 l 0.624288,-0.235071 3.577765,-7.914426 c 2.306609,-5.10247 3.681546,-7.968215 3.869841,-8.065802 0.450548,-0.23351 1.15492,0.117024 1.207254,0.600789 0,0 -1.048648,2.917094 -3.454564,8.379067 -3.149811,7.150732 -3.557666,7.992508 -4.064421,8.388066 -2.067755,1.614014 -6.341102,0.447245 -8.798456,-2.402281 C 9.8091276,54.797071 8.8921597,54.001593 8.2069751,53.534403 7.5217842,53.067214 6.4607722,52.163491 5.8491724,51.526145 3.8098958,49.401017 2.5481206,45.647379 3.0755954,43.275055 3.1792463,42.808837 3.0902263,42.432205 2.7750999,42.003871 2.1466745,41.149688 1.6711379,39.568065 1.6073688,38.120064 1.5363271,36.506777 2.4040075,34.084605 3.5429949,32.716657 4.270639,31.842745 4.2918319,31.789226 4.1377025,31.21471 3.3317415,28.210638 4.5278856,25.009546 7.3185238,22.702308 8.4767546,21.744709 8.658142,21.521681 8.6601411,21.052726 c 0.00373,-0.872716 1.1107425,-3.262564 1.9320989,-4.171087 0.872163,-0.964718 2.971684,-2.245905 3.91939,-2.391728 0.513867,-0.07907 0.778153,-0.261807 1.065643,-0.736837 0.953031,-1.574741 3.275826,-3.03609 5.478699,-3.446837 1.185365,-0.22102 3.455089,-0.179073 4.1459,0.07662 0.277605,0.102754 1.024975,-0.07737 2.108516,-0.5081768 3.686543,-1.4657346 7.345107,-0.9541861 9.624858,1.3457688 z m -6.788132,2.606528 c 1.414967,1.861675 1.500746,4.699198 0.19434,6.428464 -0.715333,0.946874 -1.314618,1.116724 -1.899805,0.538452 -0.346888,-0.342767 -0.339611,-0.425093 0.0935,-1.059497 1.282926,-1.879188 1.219239,-3.56944 -0.203528,-5.401217 -0.439821,-0.566256 -0.231659,-1.311722 0.392066,-1.403999 0.600591,-0.08888 0.740689,-5.05e-4 1.423424,0.897797 z m -7.579306,3.858963 c 0.362256,2.782509 -2.047166,5.093401 -5.064075,4.856978 -1.317958,-0.10328 -1.656103,-0.214576 -1.828908,-0.601941 -0.171031,-0.383407 0.117035,-1.035524 0.510582,-1.155901 0.170409,-0.05212 0.72096,-0.05181 1.223435,7.15e-4 2.07888,0.217229 3.41976,-1.018468 3.36422,-3.100333 -0.01955,-0.732842 0.0062,-0.787163 0.477484,-1.007539 0.721941,-0.337581 1.188546,0.01948 1.317242,1.008024 z m 3.6211,7.495508 c 0.396761,0.404707 0.461637,0.624113 0.297055,1.004713 -0.337956,0.781502 -0.796609,0.815681 -1.791154,0.133483 -0.771826,-0.529434 -0.922852,-0.573335 -1.673228,-0.486377 -0.650416,0.07537 -1.125808,0.347181 -2.248187,1.285381 -1.607449,1.343679 -2.512923,1.804641 -3.790242,1.92955 -1.676995,0.163996 -4.218791,-0.887205 -4.197639,-1.735996 0.0044,-0.177387 0.22045,-0.463554 0.480081,-0.635909 0.425362,-0.282376 0.556075,-0.269266 1.321752,0.132573 1.67849,0.880898 3.048381,0.637408 4.827066,-0.858005 1.658895,-1.394698 2.500182,-1.843263 3.559928,-1.898111 1.118657,-0.05789 2.540794,0.44145 3.214546,1.128733 z m -6.717978,9.651706 c -0.429512,1.259427 -0.369057,1.601001 0.694048,3.921636 1.179393,2.574501 1.237212,3.166722 0.480049,4.91691 -0.495198,1.144672 -2.115964,2.660514 -3.041558,2.844664 -0.563122,0.111994 -0.630757,0.08767 -0.945218,-0.33951 -0.410496,-0.557727 -0.31339,-0.834488 0.437867,-1.247997 1.501189,-0.826282 2.30894,-2.183719 2.143342,-3.601885 -0.05659,-0.484639 -0.488308,-1.556624 -0.959382,-2.382186 -0.99176,-1.738094 -1.187398,-2.973946 -0.662833,-4.187 0.414296,-0.958041 0.809678,-1.168662 1.535657,-0.818051 0.471448,0.227652 0.509035,0.333319 0.318025,0.893419 z m -7.003529,4.372863 c 2.379771,2.336105 2.054469,6.079206 -0.665924,7.662411 -1.422513,0.827878 -2.5670748,0.661829 -2.4119402,-0.349904 0.055943,-0.364801 0.2900758,-0.573978 1.0309552,-0.921158 1.774688,-0.831609 2.302476,-2.375289 1.418429,-4.148667 C 11.237218,40.240383 10.489423,39.729485 9.1387581,39.603425 8.2725448,39.522577 8.177937,39.477131 8.0773262,39.093561 7.6374604,37.416608 10.725754,37.495652 12.46801,39.205935 Z"
       style="fill:#ffffff;stroke-width:0.999999"
       id="path2"
       sodipodi:nodetypes="csccccssssssscscsscssssssssssssscssscscscsssssssssssscssssssssccsssssssssssssssscssssssssssccssssssssscsssscsssss" /><rect
       style="fill:#ff0000;fill-opacity:1;stroke:none;stroke-width:0.700504;stroke-miterlimit:3.6"
       id="rect2"
       width="2.7677374"
       height="50.572388"
       x="29.469942"
       y="-1.7161754"
       rx="0"
       ry="0"
       transform="matrix(0.9378186,0.34712572,-0.3969163,0.91785481,0,0)" /><rect
       style="fill:#ff0000;fill-opacity:1;stroke:none;stroke-width:0.700001;stroke-miterlimit:3.6"
       id="rect3"
       width="2.3694673"
       height="42.771618"
       x="-54.379097"
       y="11.176434"
       rx="0"
       ry="0"
       transform="scale(-1,1)" /></g></svg>
